<?xml version="1.0" encoding="utf-8"?><svg version="1.1" baseProfile="full" viewBox="-730.430097227202 -92.0418530181749 1368.3488912834 643.131901948507" xmlns="http://www.w3.org/2000/svg"><path d="M -510.41966509064 97.2598102944371, L -505.590212211758 97.2625105567982, L -505.617217890232 145.562503007039, L -510.446670769115 145.559802744678, L -510.41966509064 97.2598102944371" fill="white" stroke="black" stroke-width="2.3159376746" /><path d="M -505.591562495682 99.6775101793102, L -500.762109616799 99.6802104416713, L -500.786414727425 143.150203646888, L -505.615867606308 143.147503384527, L -505.591562495682 99.6775101793102" fill="white" stroke="black" stroke-width="2.3159376746" /><path d="M 322.219856090103 21.735, L 317.389856090103 21.735, L 317.389856090103 -21.735, L 322.219856090103 -21.735, L 322.219856090103 21.735" fill="white" stroke="black" stroke-width="2.3159376746" /><path d="M 327.049856090103 24.15, L 322.219856090103 24.15, L 322.219856090103 -24.15, L 327.049856090103 -24.15, L 327.049856090103 24.15" fill="white" stroke="black" stroke-width="2.3159376746" /><path d="M -6.47484234914684 -24.15, L 317.389856090103 -24.15, L 317.389856090103 24.15, L 6.47484234914684 24.15" fill="white" stroke="black" stroke-width="2.3159376746" /><path d="M -216.901743700658 97.4239231691916, L -6.47484234914684 -24.15, L 6.47484234914684 24.15, L -203.964592162008 145.731164189127" fill="white" stroke="black" stroke-width="2.3159376746" /><path d="M -500.760759332875 97.2652108191593, L -216.901743700658 97.4239231691916, L -203.964592162008 145.731164189127, L -500.78776501135 145.5652032694, A 0.363235434502629 24.15 0.0320354343689158 0 1 -500.760759332875 97.2652108191593" fill="white" stroke="black" stroke-width="2.3159376746" /><circle cx="532.5101963788" cy="0.0000000000" r="24.1500000000" fill="white" stroke="black" stroke-width="2.3159376746" /><circle cx="532.5101963788" cy="0.0000000000" r="21.7350000000" fill="white" stroke="black" stroke-width="2.3159376746" /><path d="M 556.660196378822 -1.80660806125345E-13, A 24.15 24.15 90.0000000000002 1 0 508.360196378822 1.80660806125345E-13" fill="white" stroke="black" stroke-width="2.3159376746" /><path d="M 508.360196378822 96.5132213047141, L 508.360196378822 1.80660806125345E-13, A 24.15 24.15 90.0000000000002 0 1 556.660196378822 -1.80660806125345E-13, L 556.660196378823 146.641866053604" fill="white" stroke="black" stroke-width="2.3159376746" /><circle cx="528.1427379455" cy="121.4152070443" r="24.1500000000" fill="white" stroke="black" stroke-width="2.3159376746" /><circle cx="528.0700908586" cy="121.4125067819" r="21.7350000000" fill="white" stroke="black" stroke-width="2.3159376746" /><circle cx="527.9974437717" cy="121.4098065196" r="24.1500000000" fill="white" stroke="black" stroke-width="2.3159376746" /><path d="M -500.411026680845 297.68859441514, L -210.251539912879 302.053321016452, L -210.614795949787 350.353321016452, L -501.137497663379 345.983130751164, L -500.411026680845 297.68859441514" fill="white" stroke="black" stroke-width="2.3159376746" /><path d="M -505.276803108855 300.03067414504, L -500.447350229972 300.103321231941, L -501.101174114253 343.568403934362, L -505.930626993135 343.495756847462, L -505.276803108855 300.03067414504" fill="white" stroke="black" stroke-width="2.3159376746" /><path d="M -510.069932438611 297.543300241339, L -505.240479559728 297.615947328239, L -505.966950542262 345.910483664263, L -510.796403421145 345.837836577362, L -510.069932438611 297.543300241339" fill="white" stroke="black" stroke-width="2.3159376746" /><path d="M 322.219856090103 347.938321016451, L 317.389856090103 347.938321016451, L 317.389856090103 304.468321016451, L 322.219856090103 304.468321016451, L 322.219856090103 347.938321016451" fill="white" stroke="black" stroke-width="2.3159376746" /><path d="M 327.049856090103 350.353321016451, L 322.219856090103 350.353321016451, L 322.219856090103 302.053321016451, L 327.049856090103 302.053321016451, L 327.049856090103 350.353321016451" fill="white" stroke="black" stroke-width="2.3159376746" /><path d="M -5.21882963216699E-14 302.053321016451, L 317.389856090103 302.053321016451, L 317.389856090103 350.353321016451, L 5.21882963216699E-14 350.353321016451" fill="white" stroke="black" stroke-width="2.3159376746" /><path d="M -210.251539912879 302.053321016452, L -5.21882963216699E-14 302.053321016451, L 5.21882963216699E-14 350.353321016451, L -210.614795949787 350.353321016452" fill="white" stroke="black" stroke-width="2.3159376746" /><text x="-560.4389871456" y="131.8035682371" style="font-family:Arial; font-size:34.7390651182513px; font-weight:normal; font-style:normal; fill:black;" text-anchor="end" transform="rotate(0.0320354343689075 -560.438987145591 131.80356823712)">DN 40 Nut</text><text x="377.0498560901" y="10.4217195355" style="font-family:Arial; font-size:34.7390651182513px; font-weight:normal; font-style:normal; fill:black;" text-anchor="start">Nut</text><g><line x1="-510.4795970457" y1="204.4488586580" x2="-510.4893087643" y2="221.8183885021" stroke="black" stroke-width="2.0000000000" /><line x1="-210.4795970471" y1="204.6165958176" x2="-210.4893087658" y2="221.9861256617" stroke="black" stroke-width="2.0000000000" /><text x="-360.4893087651" y="221.9022570819" style="font-family:Arial; font-size:34.7390651182513px; font-weight:normal; font-style:normal; fill:black;" text-anchor="middle" transform="rotate(0.0320354343689158 -360.489308765077 221.902257081896)">300</text></g><g><line x1="-168.8921374323" y1="193.4790674516" x2="-160.2028743636" y2="208.5189267809" stroke="black" stroke-width="2.0000000000" /><line x1="41.5410304990" y1="71.9015237724" x2="50.2302935677" y2="86.9413831017" stroke="black" stroke-width="2.0000000000" /><text x="-54.9862903980" y="147.7301549413" style="font-family:Arial; font-size:34.7390651182513px; font-weight:normal; font-style:normal; fill:black;" text-anchor="middle" transform="rotate(329.982870531684 -54.9862903979524 147.730154941291)">243</text></g><g><line x1="0.0000000000" y1="83.0390651183" x2="0.0000000000" y2="100.4085976774" stroke="black" stroke-width="2.0000000000" /><line x1="327.0498560901" y1="83.0390651183" x2="327.0498560901" y2="100.4085976774" stroke="black" stroke-width="2.0000000000" /><text x="163.5249280451" y="100.4085976774" style="font-family:Arial; font-size:34.7390651182513px; font-weight:normal; font-style:normal; fill:black;" text-anchor="middle">327</text></g><text x="-187.4659121405" y="207.4095090583" style="font-family:Arial; font-size:34.7390651182513px; font-weight:normal; font-style:normal; fill:black;" text-anchor="middle">30°</text><text x="-14.0228698167" y="-52.3027878999" style="font-family:Arial; font-size:34.7390651182513px; font-weight:normal; font-style:normal; fill:black;" text-anchor="middle">30°</text><g><line x1="615.5492614971" y1="121.5775436792" x2="632.9187940562" y2="121.5775436792" stroke="black" stroke-width="2.0000000000" /><line x1="615.5492614971" y1="0.0000000000" x2="632.9187940562" y2="0.0000000000" stroke="black" stroke-width="2.0000000000" /><text x="632.9187940562" y="60.7887718396" style="font-family:Arial; font-size:34.7390651182513px; font-weight:normal; font-style:normal; fill:black;" text-anchor="middle" transform="rotate(270 632.918794056199 60.7887718395788)">243</text></g><text x="535.0879431066" y="207.4095090583" style="font-family:Arial; font-size:34.7390651182513px; font-weight:normal; font-style:normal; fill:black;" text-anchor="middle">30°</text><text x="532.5101963788" y="-52.3027878999" style="font-family:Arial; font-size:34.7390651182513px; font-weight:normal; font-style:normal; fill:black;" text-anchor="middle">30°</text><text x="-560.5842630361" y="331.3590686922" style="font-family:Arial; font-size:34.7390651182513px; font-weight:normal; font-style:normal; fill:black;" text-anchor="end" transform="rotate(0.861807262764273 -560.584263036126 331.359068692232)">DN 40 Nut</text><text x="377.0498560901" y="336.6250405519" style="font-family:Arial; font-size:34.7390651182513px; font-weight:normal; font-style:normal; fill:black;" text-anchor="start">Nut</text><g><line x1="-511.6821424894" y1="404.7202402036" x2="-511.9433942779" y2="422.0878079327" stroke="black" stroke-width="2.0000000000" /><line x1="-211.6821424909" y1="409.2329928107" x2="-211.9433942794" y2="426.6005605398" stroke="black" stroke-width="2.0000000000" /><text x="-361.9433942786" y="424.3441842363" style="font-family:Arial; font-size:34.7390651182513px; font-weight:normal; font-style:normal; fill:black;" text-anchor="middle" transform="rotate(0.86180726276514 -361.943394278629 424.344184236282)">300</text></g><g><line x1="-210.4331679313" y1="409.2423861347" x2="-210.4331679313" y2="426.6119186938" stroke="black" stroke-width="2.0000000000" /><line x1="0.0000000000" y1="409.2423861347" x2="0.0000000000" y2="426.6119186938" stroke="black" stroke-width="2.0000000000" /><text x="-105.2165839657" y="426.6119186938" style="font-family:Arial; font-size:34.7390651182513px; font-weight:normal; font-style:normal; fill:black;" text-anchor="middle" transform="rotate(360 -105.216583965666 426.611918693829)">243</text></g><g><line x1="0.0000000000" y1="409.2423861347" x2="0.0000000000" y2="426.6119186938" stroke="black" stroke-width="2.0000000000" /><line x1="327.0498560901" y1="409.2423861347" x2="327.0498560901" y2="426.6119186938" stroke="black" stroke-width="2.0000000000" /><text x="163.5249280451" y="426.6119186938" style="font-family:Arial; font-size:34.7390651182513px; font-weight:normal; font-style:normal; fill:black;" text-anchor="middle">327</text></g><text x="-187.4659121405" y="328.7810677442" style="font-family:Arial; font-size:34.7390651182513px; font-weight:normal; font-style:normal; fill:black;" text-anchor="middle">30°</text><text x="-14.0228698167" y="326.2033210165" style="font-family:Arial; font-size:34.7390651182513px; font-weight:normal; font-style:normal; fill:black;" text-anchor="middle">30°</text><text x="-725.4300972272" y="491.3509838121" style="font-family:Arial; font-size:34.7390651182513px; font-weight:normal; font-style:normal; fill:black;" text-anchor="start">Anzahl: 8</text><text x="-725.4300972272" y="546.0900489303" style="font-family:Arial; font-size:34.7390651182513px; font-weight:normal; font-style:normal; fill:black;" text-anchor="start">Position: 100</text></svg>