<?xml version="1.0" encoding="utf-8"?><svg version="1.1" baseProfile="full" viewBox="-280.811173983338 -363.694147819149 1690.40396736076 987.010820397781" xmlns="http://www.w3.org/2000/svg"><path d="M 1.12706637792829E-11 -21.2, L 1.14667037650403E-11 21.2, A 7 21.2 180 0 1 1.12706637792829E-11 -21.2" fill="white" stroke="black" stroke-width="2.8511511867" /><path d="M 1147.208271328 19.08, L 1142.968271328 19.08, L 1142.968271328 -19.08, L 1147.208271328 -19.08, L 1147.208271328 19.08" fill="white" stroke="black" stroke-width="2.8511511867" /><path d="M 1151.448271328 21.2, L 1147.208271328 21.2, L 1147.208271328 -21.2, L 1151.448271328 -21.2, L 1151.448271328 21.2" fill="white" stroke="black" stroke-width="2.8511511867" /><path d="M -2.99662274952992E-29 -21.2, L 1142.968271328 -21.2, L 1142.968271328 21.2, L 2.99662274952992E-29 21.2, L -2.99662274952992E-29 -21.2" fill="white" stroke="black" stroke-width="2.8511511867" /><path d="M 792.348272244037 -21.2, L 792.348272244037 -40.2, L 813.648272244037 -40.2, L 813.648272244037 -21.2, A 2.8692198747571 10.65 270 0 1 792.348272244037 -21.2" fill="white" stroke="black" stroke-width="2.8511511867" /><path d="M 63.6500028610461 21.2, L 63.6500028610461 71.2, L 42.3500028610461 71.2, L 42.3500028610461 21.2, A 2.8692198747571 10.65 90 0 1 63.6500028610461 21.2" fill="white" stroke="black" stroke-width="2.8511511867" /><text x="1201.4482713280" y="12.8301803400" style="font-family:Arial; font-size:42.7672677998767px; font-weight:normal; font-style:normal; fill:black;" text-anchor="start">DN 32 Nut</text><text x="65.8301832010" y="106.5509016998" style="font-family:Arial; font-size:42.7672677998767px; font-weight:normal; font-style:normal; fill:black;" text-anchor="end" transform="rotate(-90 65.8301832010092 106.550901699815)">SM 15 x 50</text><text x="815.8284525840" y="-106.5509016998" style="font-family:Arial; font-size:42.7672677998767px; font-weight:normal; font-style:normal; fill:black;" text-anchor="start" transform="rotate(270 815.828452584 -106.550901699815)">SM 15</text><text x="-50.0000000000" y="12.8301803400" style="font-family:Arial; font-size:42.7672677998767px; font-weight:normal; font-style:normal; fill:black;" text-anchor="end">DN 32 SCH</text><g><line x1="1151.4482713280" y1="388.6312352791" x2="1151.4482713280" y2="410.0148691790" stroke="black" stroke-width="2.0000000000" /><line x1="-7.0000000000" y1="388.6312352791" x2="-7.0000000000" y2="410.0148691790" stroke="black" stroke-width="2.0000000000" /><text x="572.2241356640" y="410.0148691790" style="font-family:Arial; font-size:42.7672677998767px; font-weight:normal; font-style:normal; fill:black;" text-anchor="middle">1158</text></g><g><line x1="-7.0000000000" y1="-337.3105139192" x2="-7.0000000000" y2="-315.9268800193" stroke="black" stroke-width="2.0000000000" /><line x1="53.0000028610" y1="-337.3105139192" x2="53.0000028610" y2="-315.9268800193" stroke="black" stroke-width="2.0000000000" /><text x="23.0000014305" y="-315.9268800193" style="font-family:Arial; font-size:42.7672677998767px; font-weight:normal; font-style:normal; fill:black;" text-anchor="middle" transform="rotate(360 23.0000014305286 -315.926880019273)">60</text></g><g><line x1="53.0000028610" y1="-337.3105139192" x2="53.0000028610" y2="-315.9268800193" stroke="black" stroke-width="2.0000000000" /><line x1="802.9982722440" y1="-337.3105139192" x2="802.9982722440" y2="-315.9268800193" stroke="black" stroke-width="2.0000000000" /><text x="427.9991375525" y="-315.9268800193" style="font-family:Arial; font-size:42.7672677998767px; font-weight:normal; font-style:normal; fill:black;" text-anchor="middle">750</text></g><g><line x1="802.9982722440" y1="-337.3105139192" x2="802.9982722440" y2="-315.9268800193" stroke="black" stroke-width="2.0000000000" /><line x1="1151.4482713280" y1="-337.3105139192" x2="1151.4482713280" y2="-315.9268800193" stroke="black" stroke-width="2.0000000000" /><text x="977.2232717860" y="-315.9268800193" style="font-family:Arial; font-size:42.7672677998767px; font-weight:normal; font-style:normal; fill:black;" text-anchor="middle">348</text></g><text x="-275.8111739833" y="482.7821369789" style="font-family:Arial; font-size:42.7672677998767px; font-weight:normal; font-style:normal; fill:black;" text-anchor="start">Anzahl: 8</text><text x="-275.8111739833" y="545.5494047788" style="font-family:Arial; font-size:42.7672677998767px; font-weight:normal; font-style:normal; fill:black;" text-anchor="start">Position: S0-11</text><text x="-275.8111739833" y="618.3166725786" style="font-family:Arial; font-size:42.7672677998767px; font-weight:normal; font-style:normal; fill:black;" text-anchor="start">Kappenfarbe: gelb</text></svg>