<?xml version="1.0" encoding="utf-8"?><svg version="1.1" baseProfile="full" viewBox="-327.285 -653.777 2476.868 979.708" xmlns="http://www.w3.org/2000/svg"><path d="M 1993.970 27.135 L 1987.940 27.135 L 1987.940 -27.135 L 1993.970 -27.135 L 1993.970 27.135" fill="white" stroke="black" stroke-width="3.8215384615" /><path d="M 2000.000 30.150 L 1993.970 30.150 L 1993.970 -30.150 L 2000.000 -30.150 L 2000.000 30.150" fill="white" stroke="black" stroke-width="3.8215384615" /><path d="M 6.030 -27.135 L 12.060 -27.135 L 12.060 27.135 L 6.030 27.135 L 6.030 -27.135" fill="white" stroke="black" stroke-width="3.8215384615" /><path d="M 0.000 -30.150 L 6.030 -30.150 L 6.030 30.150 L 0.000 30.150 L 0.000 -30.150" fill="white" stroke="black" stroke-width="3.8215384615" /><path d="M 12.060 -30.150 L 1987.940 -30.150 L 1987.940 30.150 L 12.060 30.150 L 12.060 -30.150" fill="white" stroke="black" stroke-width="3.8215384615" /><path d="M 88.923 -30.150 A 12.000 6.000 0.000 0 1 64.923 -30.150" fill="white" stroke="black" stroke-width="3.8215384615" /><text x="-50.0000000000" y="17.1969230769" style="font-family:Arial; font-size:57.3230769230769px; font-weight:normal; font-style:normal; fill:black;" text-anchor="end">DN 50 Nut</text><text x="2050.0000000000" y="17.1969230769" style="font-family:Arial; font-size:57.3230769230769px; font-weight:normal; font-style:normal; fill:black;" text-anchor="start">Nut</text><text x="94.1200000000" y="-146.2846153846" style="font-family:Arial; font-size:57.3230769230769px; font-weight:normal; font-style:normal; fill:black;" text-anchor="start" transform="rotate(270 94.1200000000002 -146.284615384615)">d = 24 mm</text><g><line x1="0.0000000000" y1="117.6230769231" x2="0.0000000000" y2="146.2846153846" stroke="black" stroke-width="2.0000000000" /><line x1="2000.0000000000" y1="117.6230769231" x2="2000.0000000000" y2="146.2846153846" stroke="black" stroke-width="2.0000000000" /><text x="1000.0000000000" y="146.2846153846" style="font-family:Arial; font-size:57.3230769230769px; font-weight:normal; font-style:normal; fill:black;" text-anchor="middle">2600</text></g><g><line x1="0.0000000000" y1="-562.7921538462" x2="0.0000000000" y2="-534.1306153846" stroke="black" stroke-width="2.0000000000" /><line x1="76.9230769231" y1="-562.7921538462" x2="76.9230769231" y2="-534.1306153846" stroke="black" stroke-width="2.0000000000" /><text x="38.4615384615" y="-591.4536923077" style="font-family:Arial; font-size:57.3230769230769px; font-weight:normal; font-style:normal; fill:black;" text-anchor="middle">100</text></g><g><line x1="76.9230769231" y1="-562.7921538462" x2="76.9230769231" y2="-534.1306153846" stroke="black" stroke-width="2.0000000000" /><line x1="2000.0000000000" y1="-562.7921538462" x2="2000.0000000000" y2="-534.1306153846" stroke="black" stroke-width="2.0000000000" /><text x="1038.4615384615" y="-534.1306153846" style="font-family:Arial; font-size:57.3230769230769px; font-weight:normal; font-style:normal; fill:black;" text-anchor="middle">2500</text></g><text x="-322.2846153846" y="233.6076923077" style="font-family:Arial; font-size:57.3230769230769px; font-weight:normal; font-style:normal; fill:black;" text-anchor="start">Anzahl: 2</text><text x="-322.2846153846" y="320.9307692308" style="font-family:Arial; font-size:57.3230769230769px; font-weight:normal; font-style:normal; fill:black;" text-anchor="start">Position: 10</text></svg>